<?xml version="1.0" standalone="no"?><!DOCTYPE svg PUBLIC "-//W3C//DTD SVG 1.1//EN" "http://www.w3.org/Graphics/SVG/1.1/DTD/svg11.dtd"><svg t="1588663334596" class="icon" viewBox="0 0 1268 1024" version="1.1" xmlns="http://www.w3.org/2000/svg" p-id="3019" xmlns:xlink="http://www.w3.org/1999/xlink" width="247.65625" height="200"><defs><style type="text/css"></style></defs><path d="M518.36541 241.353362l73.825484 119.664837c7.237793 12.062988 30.881248-8.685351 34.741405-14.475585A1393.516333 1393.516333 0 0 1 751.904851 193.101411l337.763654-96.503901c166.469229 48.251951 144.755852 270.693443 96.503901 391.805839-93.126265 222.441492-395.665995 530.771456-646.576138 473.351635A675.527308 675.527308 0 0 1 144.895313 704.089568a677.939906 677.939906 0 0 1-90.231148-264.420689C23.300397 241.353362 354.308778-101.235487 414.623716 184.898579c3.860156 17.370702 43.909275-8.202832 40.531639-23.643455C386.155065-162.032945 38.741021 65.233742 5.929695 282.36752-23.986514 482.613115 60.936919 734.488297 223.545992 858.49581c99.399018 75.755562 294.819418 186.252529 426.547243 162.126553C916.926522 970.922854 1351.194077 499.018778 1254.690176 211.437152c-50.664548-149.098527-200.245595-193.007802-341.141291-148.616007a431.372438 431.372438 0 0 0-135.587981 77.20312c-90.713667 71.895406-132.692864 217.133778-221.476453 73.825485-8.202832-13.028027-48.251951 14.958105-38.119041 29.916209z" p-id="3020" fill="#ffffff"></path></svg>